<svg xmlns="http://www.w3.org/2000/svg" viewBox="0 0 294.5 53.42"><defs><style>.cls-1{fill:#fff;}</style></defs><g id="레이어_2" data-name="레이어 2"><g id="레이어_2-2" data-name="레이어 2"><path class="cls-1" d="M20.41,0h-.24A20.08,20.08,0,0,0,6.5,5.38,3.53,3.53,0,0,0,5.08,5a3.37,3.37,0,0,0-3.4,3.33,3.31,3.31,0,0,0,.78,2.16A20.05,20.05,0,0,0,0,19.94C-.12,30.28,10.4,45,16.63,52a4.1,4.1,0,0,0,3.07,1.39h0A4.13,4.13,0,0,0,22.84,52a138.81,138.81,0,0,0,9.62-12.53A4.47,4.47,0,0,0,37,31.82q3.3-6.59,3.36-11.41A20.19,20.19,0,0,0,20.41,0ZM34.23,30.82a4.48,4.48,0,0,0-4.53,4.43,4.41,4.41,0,0,0,1,2.83,136.69,136.69,0,0,1-9.56,12.43,1.88,1.88,0,0,1-1.41.67,1.86,1.86,0,0,1-1.41-.63C10.24,41.42,2.14,28.42,2.24,20A17.82,17.82,0,0,1,4.38,11.7a4.2,4.2,0,0,0,.62.07A3.36,3.36,0,0,0,8.4,8.44,3.26,3.26,0,0,0,8.07,7a17.82,17.82,0,0,1,12.1-4.74h.21A18,18,0,0,1,38.1,20.38C38.07,23.3,37,26.82,35,30.9A4.18,4.18,0,0,0,34.23,30.82Z"/><circle class="cls-1" cx="20.17" cy="20.17" r="12.33" transform="translate(-7.23 28.12) rotate(-61.17)"/><polygon class="cls-1" points="51.56 37.25 67.11 37.25 67.11 47.35 73.16 47.35 73.16 37.25 88.71 37.25 88.71 31.85 51.56 31.85 51.56 37.25"/><path class="cls-1" d="M61.88,26.23h16.5A8.56,8.56,0,0,0,87,17.81V15.13a8.56,8.56,0,0,0-8.6-8.42H61.88a8.55,8.55,0,0,0-8.59,8.42v2.68A8.55,8.55,0,0,0,61.88,26.23ZM63.09,12.5H77.17a3.67,3.67,0,0,1,3.72,4,3.67,3.67,0,0,1-3.72,4H63.09a3.66,3.66,0,0,1-3.71-4A3.66,3.66,0,0,1,63.09,12.5Z"/><rect class="cls-1" x="123.86" y="6.49" width="5.62" height="40.86"/><polygon class="cls-1" points="100.1 29.3 109.09 29.3 109.09 23.55 100.1 23.55 100.1 12.54 109.91 12.54 109.91 6.71 93.67 6.71 93.67 47.14 110.69 47.14 110.69 41.39 100.1 41.39 100.1 29.3"/><polygon class="cls-1" points="115.27 23.38 111.68 23.38 111.68 29.3 115.27 29.3 115.27 47.35 120.88 47.35 120.88 6.49 115.27 6.49 115.27 23.38"/><polygon class="cls-1" points="169.21 12.15 169.21 6.71 136.86 6.71 136.86 12.15 162.64 12.15 161.69 22.47 136.86 22.47 136.86 28.35 161.18 28.35 160.01 41.09 152.15 41.09 152.15 33.31 145.84 33.31 145.84 41.09 134.48 41.09 134.48 47.35 171.63 47.35 171.63 41.09 166.57 41.09 169.21 12.15"/><polygon class="cls-1" points="199.31 12.58 199.31 6.71 177.02 6.71 177.02 12.58 192.14 12.58 176.33 47.18 183.24 47.18 189.63 33.44 194.69 47.18 201.56 47.18 193.35 25.45 199.31 12.58"/><rect class="cls-1" x="205.66" y="6.49" width="5.96" height="40.86"/><path class="cls-1" d="M231.36,21.48h-3.2a8.45,8.45,0,0,0-8.64,8.29v9.07a8.46,8.46,0,0,0,8.64,8.3h3.2a8.47,8.47,0,0,0,8.64-8.3V29.77A8.46,8.46,0,0,0,231.36,21.48ZM234,37.59a3.75,3.75,0,0,1-4,3.76h-.43a3.74,3.74,0,0,1-4-3.76V31a3.78,3.78,0,0,1,4-3.81H230A3.78,3.78,0,0,1,234,31Z"/><rect class="cls-1" x="221.68" y="6.49" width="16.5" height="5.18"/><polygon class="cls-1" points="251.87 6.49 245.78 6.49 245.78 47.35 251.87 47.35 251.87 28.74 256.28 28.74 256.28 22.86 251.87 22.86 251.87 6.49"/><rect class="cls-1" x="218.48" y="13.88" width="22.68" height="5.4"/><polygon class="cls-1" points="283.23 26.92 283.23 20.27 277.09 16.73 282.36 13.49 282.36 8 274.37 8 274.37 5.02 267.94 5.02 267.94 8 260.07 8 260.07 13.27 272.08 13.27 260.07 20.62 260.07 27.27 271.87 19.97 283.23 26.92"/><polygon class="cls-1" points="294.5 40.01 294.5 6.49 288.58 6.49 288.58 14.05 283.27 14.05 283.27 19.36 288.58 19.36 288.58 28.26 261.76 28.26 261.76 33.23 288.41 33.23 288.41 35.43 261.76 35.43 261.76 47.35 294.5 47.35 294.5 42.3 267.85 42.3 267.85 40.01 294.5 40.01"/></g></g></svg>
