<svg xmlns="http://www.w3.org/2000/svg" viewBox="0 0 36 47.67"><g id="레이어_2" data-name="레이어 2"><g id="레이어_1-2" data-name="레이어 1"><circle cx="18" cy="18" r="11" transform="translate(-6.55 11.28) rotate(-29.7)"/><path d="M33,28.4c2-3.92,3-7.32,3-10.19A18,18,0,0,0,18.21,0H18A17.93,17.93,0,0,0,5.8,4.8a3.16,3.16,0,0,0-1.27-.3,3,3,0,0,0-3,3A3,3,0,0,0,2.2,9.4,17.88,17.88,0,0,0,0,17.79C-.11,27,9.28,40.14,14.84,46.43a3.64,3.64,0,0,0,2.74,1.24h0a3.69,3.69,0,0,0,2.77-1.3A123.55,123.55,0,0,0,29,35.19a4.08,4.08,0,0,0,1.48.31A4,4,0,0,0,33,28.4ZM18.86,45.08a1.71,1.71,0,0,1-1.26.59,1.75,1.75,0,0,1-1.27-.56C9.14,37,1.91,25.36,2,17.81a16,16,0,0,1,1.91-7.37,3.43,3.43,0,0,0,.56.06,3,3,0,0,0,3-3,2.9,2.9,0,0,0-.3-1.31A16,16,0,0,1,18,2h.19A16,16,0,0,1,34,18.19c0,2.61-1,5.74-2.81,9.38a4.48,4.48,0,0,0-.64-.07,4,4,0,0,0-4.05,3.95A3.94,3.94,0,0,0,27.39,34,124.74,124.74,0,0,1,18.86,45.08Z"/></g></g></svg>
